<svg width="275" height="28" viewBox="0 0 275 28" fill="none" xmlns="http://www.w3.org/2000/svg">
<path d="M247.3 27.05C247.14 27.05 247 26.99 246.88 26.87C246.76 26.75 246.7 26.61 246.7 26.45C246.7 26.35 246.73 26.23 246.79 26.09L257.05 1.48995C257.11 1.36995 257.19 1.24995 257.29 1.12995C257.41 1.00995 257.59 0.949951 257.83 0.949951H259C259.16 0.949951 259.3 1.00995 259.42 1.12995C259.54 1.24995 259.6 1.38995 259.6 1.54995C259.6 1.62995 259.58 1.74995 259.54 1.90995L249.25 26.51C249.21 26.61 249.12 26.72 248.98 26.84C248.86 26.98 248.69 27.05 248.47 27.05H247.3Z" fill="#E9E9E9"/>
<path d="M263.003 23.75C262.843 23.75 262.703 23.7 262.583 23.6C262.463 23.5 262.403 23.35 262.403 23.15V21.83C262.403 21.59 262.453 21.4 262.553 21.26C262.673 21.12 262.853 20.9799 263.093 20.84L271.103 15.35L263.093 9.85995C262.853 9.69995 262.673 9.54995 262.553 9.40995C262.453 9.26995 262.403 9.07995 262.403 8.83995V7.51995C262.403 7.31995 262.463 7.16995 262.583 7.06995C262.703 6.96995 262.843 6.91995 263.003 6.91995C263.123 6.91995 263.253 6.95995 263.393 7.03995C263.533 7.09995 263.643 7.15995 263.723 7.21995L273.143 13.7C273.463 13.92 273.683 14.13 273.803 14.33C273.943 14.53 274.013 14.78 274.013 15.08V15.59C274.013 15.87 273.943 16.12 273.803 16.34C273.683 16.54 273.463 16.75 273.143 16.97L263.723 23.45C263.643 23.51 263.533 23.58 263.393 23.66C263.253 23.72 263.123 23.75 263.003 23.75Z" fill="#E9E9E9"/>
<path d="M27.22 24.53C27 24.53 26.83 24.47 26.71 24.35C26.59 24.21 26.53 24.04 26.53 23.84V4.24995C26.53 4.02995 26.59 3.85995 26.71 3.73995C26.83 3.59995 27 3.52995 27.22 3.52995H34.03C36.09 3.52995 37.75 3.83995 39.01 4.45995C40.27 5.07995 41.19 5.99995 41.77 7.21995C42.35 8.41995 42.65 9.89995 42.67 11.66C42.69 12.56 42.7 13.35 42.7 14.03C42.7 14.71 42.69 15.49 42.67 16.37C42.63 18.21 42.32 19.74 41.74 20.96C41.18 22.16 40.28 23.06 39.04 23.66C37.82 24.24 36.2 24.53 34.18 24.53H27.22ZM29.47 21.98H34.03C35.41 21.98 36.51 21.79 37.33 21.41C38.15 21.03 38.74 20.42 39.1 19.58C39.48 18.74 39.68 17.63 39.7 16.25C39.74 15.65 39.76 15.13 39.76 14.69C39.76 14.23 39.76 13.78 39.76 13.34C39.76 12.88 39.74 12.36 39.7 11.78C39.66 9.83995 39.2 8.40995 38.32 7.48995C37.44 6.54995 35.96 6.07995 33.88 6.07995H29.47V21.98Z" fill="#59E3A7"/>
<path d="M51.1736 24.83C50.1736 24.83 49.2636 24.63 48.4436 24.23C47.6236 23.83 46.9636 23.29 46.4636 22.61C45.9636 21.93 45.7136 21.16 45.7136 20.3C45.7136 18.92 46.2736 17.82 47.3936 17C48.5136 16.18 49.9736 15.64 51.7736 15.38L56.2436 14.75V13.88C56.2436 12.92 55.9636 12.17 55.4036 11.63C54.8636 11.09 53.9736 10.82 52.7336 10.82C51.8336 10.82 51.1036 11 50.5436 11.36C50.0036 11.72 49.6236 12.18 49.4036 12.74C49.2836 13.04 49.0736 13.19 48.7736 13.19H47.4236C47.2036 13.19 47.0336 13.13 46.9136 13.01C46.8136 12.87 46.7636 12.71 46.7636 12.53C46.7636 12.23 46.8736 11.86 47.0936 11.42C47.3336 10.98 47.6936 10.55 48.1736 10.13C48.6536 9.70995 49.2636 9.35995 50.0036 9.07995C50.7636 8.77995 51.6836 8.62995 52.7636 8.62995C53.9636 8.62995 54.9736 8.78995 55.7936 9.10995C56.6136 9.40995 57.2536 9.81995 57.7136 10.34C58.1936 10.86 58.5336 11.45 58.7336 12.11C58.9536 12.77 59.0636 13.44 59.0636 14.12V23.84C59.0636 24.04 58.9936 24.21 58.8536 24.35C58.7336 24.47 58.5736 24.53 58.3736 24.53H56.9936C56.7736 24.53 56.6036 24.47 56.4836 24.35C56.3636 24.21 56.3036 24.04 56.3036 23.84V22.55C56.0436 22.91 55.6936 23.27 55.2536 23.63C54.8136 23.97 54.2636 24.26 53.6036 24.5C52.9436 24.72 52.1336 24.83 51.1736 24.83ZM51.8036 22.58C52.6236 22.58 53.3736 22.41 54.0536 22.07C54.7336 21.71 55.2636 21.16 55.6436 20.42C56.0436 19.68 56.2436 18.75 56.2436 17.63V16.79L52.7636 17.3C51.3436 17.5 50.2736 17.84 49.5536 18.32C48.8336 18.7799 48.4736 19.3699 48.4736 20.09C48.4736 20.65 48.6336 21.12 48.9536 21.5C49.2936 21.86 49.7136 22.13 50.2136 22.31C50.7336 22.49 51.2636 22.58 51.8036 22.58Z" fill="#59E3A7"/>
<path d="M64.0663 24.53C63.8663 24.53 63.6963 24.47 63.5563 24.35C63.4363 24.21 63.3763 24.04 63.3763 23.84V9.61995C63.3763 9.41995 63.4363 9.25995 63.5563 9.13995C63.6963 8.99995 63.8663 8.92995 64.0663 8.92995H65.4763C65.6763 8.92995 65.8363 8.99995 65.9563 9.13995C66.0963 9.25995 66.1663 9.41995 66.1663 9.61995V10.94C66.6863 10.26 67.3363 9.70995 68.1163 9.28995C68.9163 8.84995 69.9363 8.62995 71.1763 8.62995C72.4763 8.62995 73.5763 8.91995 74.4763 9.49995C75.3963 10.06 76.0863 10.85 76.5463 11.87C77.0063 12.87 77.2363 14.04 77.2363 15.38V23.84C77.2363 24.04 77.1763 24.21 77.0563 24.35C76.9363 24.47 76.7763 24.53 76.5763 24.53H75.0763C74.8763 24.53 74.7063 24.47 74.5663 24.35C74.4463 24.21 74.3863 24.04 74.3863 23.84V15.53C74.3863 14.13 74.0463 13.04 73.3663 12.26C72.6863 11.46 71.6863 11.06 70.3663 11.06C69.1263 11.06 68.1263 11.46 67.3663 12.26C66.6263 13.04 66.2563 14.13 66.2563 15.53V23.84C66.2563 24.04 66.1863 24.21 66.0463 24.35C65.9263 24.47 65.7663 24.53 65.5663 24.53H64.0663Z" fill="#59E3A7"/>
<path d="M82.2597 24.53C82.0597 24.53 81.8897 24.47 81.7497 24.35C81.6297 24.21 81.5697 24.04 81.5697 23.84V9.61995C81.5697 9.41995 81.6297 9.25995 81.7497 9.13995C81.8897 8.99995 82.0597 8.92995 82.2597 8.92995H83.6997C83.8997 8.92995 84.0597 8.99995 84.1797 9.13995C84.2997 9.25995 84.3597 9.41995 84.3597 9.61995V23.84C84.3597 24.04 84.2997 24.21 84.1797 24.35C84.0597 24.47 83.8997 24.53 83.6997 24.53H82.2597ZM82.0197 6.01995C81.8197 6.01995 81.6497 5.95995 81.5097 5.83995C81.3897 5.69995 81.3297 5.52995 81.3297 5.32995V3.70995C81.3297 3.50995 81.3897 3.34995 81.5097 3.22995C81.6497 3.08995 81.8197 3.01995 82.0197 3.01995H83.9097C84.1097 3.01995 84.2697 3.08995 84.3897 3.22995C84.5297 3.34995 84.5997 3.50995 84.5997 3.70995V5.32995C84.5997 5.52995 84.5297 5.69995 84.3897 5.83995C84.2697 5.95995 84.1097 6.01995 83.9097 6.01995H82.0197Z" fill="#59E3A7"/>
<path d="M89.5553 24.53C89.3553 24.53 89.1853 24.47 89.0453 24.35C88.9253 24.21 88.8653 24.04 88.8653 23.84V3.91995C88.8653 3.71995 88.9253 3.55995 89.0453 3.43995C89.1853 3.29995 89.3553 3.22995 89.5553 3.22995H90.9653C91.1853 3.22995 91.3553 3.29995 91.4753 3.43995C91.5953 3.55995 91.6553 3.71995 91.6553 3.91995V23.84C91.6553 24.04 91.5953 24.21 91.4753 24.35C91.3553 24.47 91.1853 24.53 90.9653 24.53H89.5553Z" fill="#59E3A7"/>
<path d="M102.52 24.83C101 24.83 99.7302 24.54 98.7102 23.96C97.6902 23.38 96.9102 22.58 96.3702 21.56C95.8302 20.52 95.5302 19.34 95.4702 18.02C95.4502 17.68 95.4402 17.25 95.4402 16.73C95.4402 16.19 95.4502 15.76 95.4702 15.44C95.5302 14.1 95.8302 12.92 96.3702 11.9C96.9302 10.88 97.7202 10.08 98.7402 9.49995C99.7602 8.91995 101.02 8.62995 102.52 8.62995C104.02 8.62995 105.28 8.91995 106.3 9.49995C107.32 10.08 108.1 10.88 108.64 11.9C109.2 12.92 109.51 14.1 109.57 15.44C109.59 15.76 109.6 16.19 109.6 16.73C109.6 17.25 109.59 17.68 109.57 18.02C109.51 19.34 109.21 20.52 108.67 21.56C108.13 22.58 107.35 23.38 106.33 23.96C105.31 24.54 104.04 24.83 102.52 24.83ZM102.52 22.52C103.76 22.52 104.75 22.13 105.49 21.35C106.23 20.55 106.63 19.39 106.69 17.87C106.71 17.57 106.72 17.19 106.72 16.73C106.72 16.27 106.71 15.89 106.69 15.59C106.63 14.07 106.23 12.92 105.49 12.14C104.75 11.34 103.76 10.94 102.52 10.94C101.28 10.94 100.28 11.34 99.5202 12.14C98.7802 12.92 98.3902 14.07 98.3502 15.59C98.3302 15.89 98.3202 16.27 98.3202 16.73C98.3202 17.19 98.3302 17.57 98.3502 17.87C98.3902 19.39 98.7802 20.55 99.5202 21.35C100.28 22.13 101.28 22.52 102.52 22.52Z" fill="#59E3A7"/>
<path d="M121.79 24.53C121.57 24.53 121.4 24.47 121.28 24.35C121.16 24.21 121.1 24.04 121.1 23.84V4.24995C121.1 4.02995 121.16 3.85995 121.28 3.73995C121.4 3.59995 121.57 3.52995 121.79 3.52995H130.01C131.51 3.52995 132.73 3.77995 133.67 4.27995C134.63 4.75995 135.33 5.41995 135.77 6.25995C136.23 7.09995 136.46 8.03995 136.46 9.07995C136.46 9.89995 136.32 10.61 136.04 11.21C135.78 11.79 135.45 12.27 135.05 12.65C134.65 13.01 134.26 13.29 133.88 13.49C134.66 13.87 135.35 14.49 135.95 15.35C136.57 16.21 136.88 17.25 136.88 18.47C136.88 19.57 136.63 20.58 136.13 21.5C135.63 22.42 134.88 23.16 133.88 23.72C132.9 24.26 131.68 24.53 130.22 24.53H121.79ZM124.04 22.1H129.83C131.13 22.1 132.13 21.75 132.83 21.05C133.53 20.35 133.88 19.49 133.88 18.47C133.88 17.41 133.53 16.54 132.83 15.86C132.13 15.16 131.13 14.81 129.83 14.81H124.04V22.1ZM124.04 12.41H129.56C130.84 12.41 131.81 12.12 132.47 11.54C133.13 10.9399 133.46 10.13 133.46 9.10995C133.46 8.08995 133.13 7.30995 132.47 6.76995C131.81 6.22995 130.84 5.95995 129.56 5.95995H124.04V12.41Z" fill="#59E3A7"/>
<path d="M145.099 24.83C144.099 24.83 143.189 24.63 142.369 24.23C141.549 23.83 140.889 23.29 140.389 22.61C139.889 21.93 139.639 21.16 139.639 20.3C139.639 18.92 140.199 17.82 141.319 17C142.439 16.18 143.899 15.64 145.699 15.38L150.169 14.75V13.88C150.169 12.92 149.889 12.17 149.329 11.63C148.789 11.09 147.899 10.82 146.659 10.82C145.759 10.82 145.029 11 144.469 11.36C143.929 11.72 143.549 12.18 143.329 12.74C143.209 13.04 142.999 13.19 142.699 13.19H141.349C141.129 13.19 140.959 13.13 140.839 13.01C140.739 12.87 140.689 12.71 140.689 12.53C140.689 12.23 140.799 11.86 141.019 11.42C141.259 10.98 141.619 10.55 142.099 10.13C142.579 9.70995 143.189 9.35995 143.929 9.07995C144.689 8.77995 145.609 8.62995 146.689 8.62995C147.889 8.62995 148.899 8.78995 149.719 9.10995C150.539 9.40995 151.179 9.81995 151.639 10.34C152.119 10.86 152.459 11.45 152.659 12.11C152.879 12.77 152.989 13.44 152.989 14.12V23.84C152.989 24.04 152.919 24.21 152.779 24.35C152.659 24.47 152.499 24.53 152.299 24.53H150.919C150.699 24.53 150.529 24.47 150.409 24.35C150.289 24.21 150.229 24.04 150.229 23.84V22.55C149.969 22.91 149.619 23.27 149.179 23.63C148.739 23.97 148.189 24.26 147.529 24.5C146.869 24.72 146.059 24.83 145.099 24.83ZM145.729 22.58C146.549 22.58 147.299 22.41 147.979 22.07C148.659 21.71 149.189 21.16 149.569 20.42C149.969 19.68 150.169 18.75 150.169 17.63V16.79L146.689 17.3C145.269 17.5 144.199 17.84 143.479 18.32C142.759 18.7799 142.399 19.3699 142.399 20.09C142.399 20.65 142.559 21.12 142.879 21.5C143.219 21.86 143.639 22.13 144.139 22.31C144.659 22.49 145.189 22.58 145.729 22.58Z" fill="#59E3A7"/>
<path d="M163.122 24.83C161.842 24.83 160.752 24.55 159.852 23.99C158.972 23.41 158.302 22.61 157.842 21.59C157.382 20.57 157.152 19.4 157.152 18.08V9.61995C157.152 9.41995 157.212 9.25995 157.332 9.13995C157.472 8.99995 157.642 8.92995 157.842 8.92995H159.342C159.542 8.92995 159.702 8.99995 159.822 9.13995C159.962 9.25995 160.032 9.41995 160.032 9.61995V17.93C160.032 20.91 161.332 22.4 163.932 22.4C165.172 22.4 166.162 22.01 166.902 21.23C167.662 20.43 168.042 19.33 168.042 17.93V9.61995C168.042 9.41995 168.102 9.25995 168.222 9.13995C168.362 8.99995 168.532 8.92995 168.732 8.92995H170.202C170.422 8.92995 170.592 8.99995 170.712 9.13995C170.832 9.25995 170.892 9.41995 170.892 9.61995V23.84C170.892 24.04 170.832 24.21 170.712 24.35C170.592 24.47 170.422 24.53 170.202 24.53H168.822C168.622 24.53 168.452 24.47 168.312 24.35C168.192 24.21 168.132 24.04 168.132 23.84V22.52C167.592 23.22 166.932 23.78 166.152 24.2C165.392 24.62 164.382 24.83 163.122 24.83Z" fill="#59E3A7"/>
<path d="M181.439 24.53C180.319 24.53 179.409 24.32 178.709 23.9C178.009 23.46 177.499 22.85 177.179 22.07C176.859 21.27 176.699 20.33 176.699 19.25V11.33H174.359C174.159 11.33 173.989 11.27 173.849 11.15C173.729 11.01 173.669 10.84 173.669 10.64V9.61995C173.669 9.41995 173.729 9.25995 173.849 9.13995C173.989 8.99995 174.159 8.92995 174.359 8.92995H176.699V3.91995C176.699 3.71995 176.759 3.55995 176.879 3.43995C177.019 3.29995 177.189 3.22995 177.389 3.22995H178.799C178.999 3.22995 179.159 3.29995 179.279 3.43995C179.419 3.55995 179.489 3.71995 179.489 3.91995V8.92995H183.209C183.409 8.92995 183.569 8.99995 183.689 9.13995C183.829 9.25995 183.899 9.41995 183.899 9.61995V10.64C183.899 10.84 183.829 11.01 183.689 11.15C183.569 11.27 183.409 11.33 183.209 11.33H179.489V19.04C179.489 19.98 179.649 20.7199 179.969 21.26C180.289 21.8 180.859 22.07 181.679 22.07H183.509C183.709 22.07 183.869 22.14 183.989 22.28C184.129 22.4 184.199 22.5599 184.199 22.76V23.84C184.199 24.04 184.129 24.21 183.989 24.35C183.869 24.47 183.709 24.53 183.509 24.53H181.439Z" fill="#59E3A7"/>
<path d="M187.758 24.53C187.558 24.53 187.388 24.47 187.248 24.35C187.128 24.21 187.068 24.04 187.068 23.84V9.61995C187.068 9.41995 187.128 9.25995 187.248 9.13995C187.388 8.99995 187.558 8.92995 187.758 8.92995H189.198C189.398 8.92995 189.558 8.99995 189.678 9.13995C189.798 9.25995 189.858 9.41995 189.858 9.61995V23.84C189.858 24.04 189.798 24.21 189.678 24.35C189.558 24.47 189.398 24.53 189.198 24.53H187.758ZM187.518 6.01995C187.318 6.01995 187.148 5.95995 187.008 5.83995C186.888 5.69995 186.828 5.52995 186.828 5.32995V3.70995C186.828 3.50995 186.888 3.34995 187.008 3.22995C187.148 3.08995 187.318 3.01995 187.518 3.01995H189.408C189.608 3.01995 189.768 3.08995 189.888 3.22995C190.028 3.34995 190.098 3.50995 190.098 3.70995V5.32995C190.098 5.52995 190.028 5.69995 189.888 5.83995C189.768 5.95995 189.608 6.01995 189.408 6.01995H187.518Z" fill="#59E3A7"/>
<path d="M199.909 24.83C198.789 24.83 197.829 24.69 197.029 24.41C196.229 24.13 195.579 23.79 195.079 23.39C194.579 22.99 194.199 22.59 193.939 22.19C193.699 21.79 193.569 21.47 193.549 21.23C193.529 21.01 193.599 20.84 193.759 20.72C193.919 20.6 194.079 20.54 194.239 20.54H195.559C195.679 20.54 195.769 20.56 195.829 20.6C195.909 20.62 196.009 20.7 196.129 20.84C196.389 21.12 196.679 21.4 196.999 21.68C197.319 21.96 197.709 22.19 198.169 22.37C198.649 22.55 199.239 22.64 199.939 22.64C200.959 22.64 201.799 22.45 202.459 22.07C203.119 21.67 203.449 21.09 203.449 20.33C203.449 19.83 203.309 19.43 203.029 19.13C202.769 18.83 202.289 18.5599 201.589 18.32C200.909 18.08 199.969 17.83 198.769 17.57C197.569 17.29 196.619 16.95 195.919 16.55C195.219 16.13 194.719 15.64 194.419 15.08C194.119 14.5 193.969 13.85 193.969 13.13C193.969 12.39 194.189 11.68 194.629 11C195.069 10.3 195.709 9.72995 196.549 9.28995C197.409 8.84995 198.479 8.62995 199.759 8.62995C200.799 8.62995 201.689 8.75995 202.429 9.01995C203.169 9.27995 203.779 9.60995 204.259 10.01C204.739 10.39 205.099 10.77 205.339 11.15C205.579 11.53 205.709 11.85 205.729 12.11C205.749 12.31 205.689 12.48 205.549 12.62C205.409 12.74 205.249 12.8 205.069 12.8H203.809C203.669 12.8 203.549 12.7699 203.449 12.71C203.369 12.65 203.289 12.58 203.209 12.5C203.009 12.24 202.769 11.9799 202.489 11.72C202.229 11.46 201.879 11.25 201.439 11.09C201.019 10.91 200.459 10.82 199.759 10.82C198.759 10.82 198.009 11.03 197.509 11.45C197.009 11.87 196.759 12.4 196.759 13.04C196.759 13.42 196.869 13.76 197.089 14.06C197.309 14.36 197.729 14.63 198.349 14.87C198.969 15.11 199.889 15.37 201.109 15.65C202.429 15.91 203.469 16.26 204.229 16.7C204.989 17.14 205.529 17.65 205.849 18.23C206.169 18.81 206.329 19.48 206.329 20.24C206.329 21.08 206.079 21.85 205.579 22.55C205.099 23.25 204.379 23.81 203.419 24.23C202.479 24.63 201.309 24.83 199.909 24.83Z" fill="#59E3A7"/>
<path d="M215.863 24.53C214.743 24.53 213.833 24.32 213.133 23.9C212.433 23.46 211.923 22.85 211.603 22.07C211.283 21.27 211.123 20.33 211.123 19.25V11.33H208.783C208.583 11.33 208.413 11.27 208.273 11.15C208.153 11.01 208.093 10.84 208.093 10.64V9.61995C208.093 9.41995 208.153 9.25995 208.273 9.13995C208.413 8.99995 208.583 8.92995 208.783 8.92995H211.123V3.91995C211.123 3.71995 211.183 3.55995 211.303 3.43995C211.443 3.29995 211.613 3.22995 211.813 3.22995H213.223C213.423 3.22995 213.583 3.29995 213.703 3.43995C213.843 3.55995 213.913 3.71995 213.913 3.91995V8.92995H217.633C217.833 8.92995 217.993 8.99995 218.113 9.13995C218.253 9.25995 218.323 9.41995 218.323 9.61995V10.64C218.323 10.84 218.253 11.01 218.113 11.15C217.993 11.27 217.833 11.33 217.633 11.33H213.913V19.04C213.913 19.98 214.073 20.7199 214.393 21.26C214.713 21.8 215.283 22.07 216.103 22.07H217.933C218.133 22.07 218.293 22.14 218.413 22.28C218.553 22.4 218.623 22.5599 218.623 22.76V23.84C218.623 24.04 218.553 24.21 218.413 24.35C218.293 24.47 218.133 24.53 217.933 24.53H215.863Z" fill="#59E3A7"/>
<path d="M225.842 24.83C224.842 24.83 223.932 24.63 223.112 24.23C222.292 23.83 221.632 23.29 221.132 22.61C220.632 21.93 220.382 21.16 220.382 20.3C220.382 18.92 220.942 17.82 222.062 17C223.182 16.18 224.642 15.64 226.442 15.38L230.912 14.75V13.88C230.912 12.92 230.632 12.17 230.072 11.63C229.532 11.09 228.642 10.82 227.402 10.82C226.502 10.82 225.772 11 225.212 11.36C224.672 11.72 224.292 12.18 224.072 12.74C223.952 13.04 223.742 13.19 223.442 13.19H222.092C221.872 13.19 221.702 13.13 221.582 13.01C221.482 12.87 221.432 12.71 221.432 12.53C221.432 12.23 221.542 11.86 221.762 11.42C222.002 10.98 222.362 10.55 222.842 10.13C223.322 9.70995 223.932 9.35995 224.672 9.07995C225.432 8.77995 226.352 8.62995 227.432 8.62995C228.632 8.62995 229.642 8.78995 230.462 9.10995C231.282 9.40995 231.922 9.81995 232.382 10.34C232.862 10.86 233.202 11.45 233.402 12.11C233.622 12.77 233.732 13.44 233.732 14.12V23.84C233.732 24.04 233.662 24.21 233.522 24.35C233.402 24.47 233.242 24.53 233.042 24.53H231.662C231.442 24.53 231.272 24.47 231.152 24.35C231.032 24.21 230.972 24.04 230.972 23.84V22.55C230.712 22.91 230.362 23.27 229.922 23.63C229.482 23.97 228.932 24.26 228.272 24.5C227.612 24.72 226.802 24.83 225.842 24.83ZM226.472 22.58C227.292 22.58 228.042 22.41 228.722 22.07C229.402 21.71 229.932 21.16 230.312 20.42C230.712 19.68 230.912 18.75 230.912 17.63V16.79L227.432 17.3C226.012 17.5 224.942 17.84 224.222 18.32C223.502 18.7799 223.142 19.3699 223.142 20.09C223.142 20.65 223.302 21.12 223.622 21.5C223.962 21.86 224.382 22.13 224.882 22.31C225.402 22.49 225.932 22.58 226.472 22.58Z" fill="#59E3A7"/>
<path d="M11.04 23.78C10.92 23.78 10.79 23.74 10.65 23.66C10.53 23.58 10.42 23.52 10.32 23.48L0.87 16.97C0.57 16.77 0.35 16.57 0.21 16.37C0.07 16.15 0 15.9 0 15.62V15.08C0 14.8 0.07 14.56 0.21 14.36C0.35 14.16 0.57 13.95 0.87 13.73L10.32 7.24995C10.42 7.18995 10.53 7.11995 10.65 7.03995C10.79 6.95995 10.92 6.91995 11.04 6.91995C11.2 6.91995 11.34 6.97995 11.46 7.09995C11.58 7.19995 11.64 7.34995 11.64 7.54995V8.86995C11.64 9.08995 11.58 9.27995 11.46 9.43995C11.34 9.57995 11.17 9.71995 10.95 9.85995L2.91 15.35L10.95 20.84C11.17 21 11.34 21.15 11.46 21.29C11.58 21.43 11.64 21.62 11.64 21.86V23.18C11.64 23.36 11.58 23.51 11.46 23.63C11.34 23.73 11.2 23.78 11.04 23.78Z" fill="#E9E9E9"/>
</svg>
